# xmcd CD database file
#
# Track frame offsets:
#	150
#	12397
#	25117
#	36920
#	51555
#	64447
#	77345
#	90600
#	102667
#	114790
#	127512
#	141030
#	153442
#	166480
#	178692
#	192042
#	203642
#	216467
#	229032
#	240510
#	253542
#	266947
#	279952
#	290740
#	303147
#
# Disc length: 4193 seconds
#
# Revision: 0
# Processed by: cddbd v1.5.1PL2 Copyright (c) Steve Scherf et al.
# Submitted via: CDex 1.70beta2
#
DISCID=5d105f19
DTITLE=Various Artist - Australian Jazz 1947 - 1950
DYEAR=1950
DGENRE=Jazz
TTITLE0=Red Hot Henry Brown - Southern Jazz Group
TTITLE1=The Jazz Parade - Southern Jazz Group
TTITLE2=Southern March - Southern Jazz Group
TTITLE3=Georgia Camp Meeting - Southern Jazz Group
TTITLE4=Clarinet Marmalade - Southern Jazz Group
TTITLE5=Mabel's Dream - Southern Jazz Group
TTITLE6=Tiger Rag - Southern Jazz Group
TTITLE7=LookDown The Road - Lazy Ade and His Backroom Boys
TTITLE8=Forgotten Woman Blues - Lazy Ade and His Backroom Boys
TTITLE9=That Da Da Strain - Frank Coughlan and His Lucky Seven
TTITLE10=Randwick Saturday Blues - Frank Coughlan and His Lucky Seven
TTITLE11=Alexander's Rag Time Band - Frank Coughland and His Lucky Seven
TTITLE12=Carry Me Back To Old Virginny - Frank Coughlan and His Lucky Seven
TTITLE13=Millenberg Joys - Frank Coughlan and His Lucky Seven
TTITLE14=On The Sunny Side Of The Street - Rex Stewart and His Sydney Six
TTITLE15=Boog It, Jack - Rex Stewart and His Sydney Six
TTITLE16=Caribbean Cradle Song - Rex Stewart and His Sydney Six
TTITLE17=Oh Lady Be Good - Rex Stewart and His Sydney Six
TTITLE18=Indiana - Rex Stewart and His Sydney Six
TTITLE19=Down South - Frank Johnson and His Fabulous Dixielanders
TTITLE20=Oh Didn't He Ramble - Frank Johnson and His Fabulous Dixielanders
TTITLE21=Salty Dog - Frank Johnson and His Fabulous Dixielanders
TTITLE22=Dixie Born - Frank Johnson and His Fabulous Dixielanders
TTITLE23=Wild Man Blues - Wocka Dyer and His Baccanallians
TTITLE24=Ice Cream - Wocka Dyer and His Baccanallians
EXTD=YEAR: 1950
EXTT0=
EXTT1=
EXTT2=
EXTT3=
EXTT4=
EXTT5=
EXTT6=
EXTT7=
EXTT8=
EXTT9=
EXTT10=
EXTT11=
EXTT12=
EXTT13=
EXTT14=
EXTT15=
EXTT16=
EXTT17=
EXTT18=
EXTT19=
EXTT20=
EXTT21=
EXTT22=
EXTT23=
EXTT24=
PLAYORDER=
